<?xml version="1.0" encoding="UTF-8"?>
<svg version="1.1" xmlns="http://www.w3.org/2000/svg" width="1024" height="1024">
<path d="M0 0 C337.92 0 675.84 0 1024 0 C1024 337.92 1024 675.84 1024 1024 C686.08 1024 348.16 1024 0 1024 C0 686.08 0 348.16 0 0 Z " fill="#FEFEFE" transform="translate(0,0)"/>
<path d="M0 0 C20.06555056 8.4038376 38.17158768 23.95329989 53.91015625 38.61328125 C56.16534489 40.70555912 58.46677764 42.73640178 60.7890625 44.75390625 C64.94389187 48.37429699 68.97880617 52.11079258 72.9921875 55.88671875 C73.66056641 56.51191406 74.32894531 57.13710937 75.01757812 57.78125 C81.20850936 63.59314463 87.25354446 69.47193826 92.796875 75.91015625 C94.47878507 77.8631434 96.17243656 79.8034034 97.875 81.73828125 C103.93029952 88.64146827 109.81837085 95.62464127 115.41503906 102.90673828 C116.57332481 104.4103763 117.75051685 105.89940246 118.9296875 107.38671875 C119.3726416 107.95302002 119.8155957 108.51932129 120.27197266 109.1027832 C121.86767543 110.61591909 121.86767543 110.61591909 124.11035156 110.34545898 C124.96338867 110.15153564 125.81642578 109.9576123 126.6953125 109.7578125 C128.16774414 109.44239502 128.16774414 109.44239502 129.66992188 109.12060547 C130.74564453 108.87842285 131.82136719 108.63624023 132.9296875 108.38671875 C135.27759034 107.91399784 137.62661237 107.44681116 139.9765625 106.984375 C141.22139404 106.73526367 142.46622559 106.48615234 143.7487793 106.22949219 C188.66863537 97.28264657 233.94930453 94.44110651 279.3671875 101.13671875 C280.28522156 101.27021729 281.20325562 101.40371582 282.14910889 101.54125977 C304.55352646 104.80570487 326.52799852 109.03357471 348.44921875 114.74121094 C356.10444684 117.13921553 356.10444684 117.13921553 363.9296875 117.38671875 C366.11746216 115.44921815 366.11746216 115.44921815 367.9296875 113.38671875 C368.5896875 113.38671875 369.2496875 113.38671875 369.9296875 113.38671875 C369.9296875 112.72671875 369.9296875 112.06671875 369.9296875 111.38671875 C371.625 110.046875 371.625 110.046875 374.0546875 108.44921875 C379.3500516 104.86839948 384.32521214 100.97298616 389.28173828 96.94360352 C393.71711949 93.38671875 393.71711949 93.38671875 395.9296875 93.38671875 C395.9296875 92.72671875 395.9296875 92.06671875 395.9296875 91.38671875 C397.36669922 90.05810547 397.36669922 90.05810547 399.359375 88.56640625 C400.07222656 88.03144531 400.78507813 87.49648438 401.51953125 86.9453125 C402.27363281 86.38972656 403.02773438 85.83414063 403.8046875 85.26171875 C404.92423828 84.41673828 404.92423828 84.41673828 406.06640625 83.5546875 C411.66742963 79.38671875 411.66742963 79.38671875 413.9296875 79.38671875 C413.9296875 78.72671875 413.9296875 78.06671875 413.9296875 77.38671875 C419.34145221 73.38671875 419.34145221 73.38671875 421.9296875 73.38671875 C421.9296875 72.72671875 421.9296875 72.06671875 421.9296875 71.38671875 C423.68832658 70.02262652 425.51672208 68.7483823 427.3671875 67.51171875 C428.56192976 66.70551056 429.75590103 65.89815899 430.94921875 65.08984375 C431.59197754 64.65607422 432.23473633 64.22230469 432.89697266 63.77539062 C435.74735945 61.82811701 438.55589877 59.82402923 441.36694336 57.82055664 C448.42797126 52.78934772 455.56023259 47.95851022 462.9296875 43.38671875 C464.72241088 42.24253942 466.51405352 41.09666523 468.3046875 39.94921875 C470.17853177 38.75989587 472.05356689 37.57244751 473.9296875 36.38671875 C474.90292969 35.77054688 475.87617187 35.154375 476.87890625 34.51953125 C483.26205194 30.53106632 489.73513479 26.74605153 496.3046875 23.07421875 C497.05371338 22.65358154 497.80273926 22.23294434 498.57446289 21.79956055 C513.08809882 13.76086593 513.08809882 13.76086593 519.9296875 15.38671875 C524.39945023 17.86190994 528.24548204 21.00762928 530.9296875 25.38671875 C531.80859375 28.6015625 531.80859375 28.6015625 532.4921875 32.32421875 C532.61513184 32.99026123 532.73807617 33.65630371 532.86474609 34.3425293 C533.23115987 36.3554102 533.58086331 38.37072755 533.9296875 40.38671875 C534.12691406 41.45664063 534.32414063 42.5265625 534.52734375 43.62890625 C539.53041255 72.75788462 537.26326352 103.08400286 534.56912231 132.34220886 C534.06501136 137.81791032 533.60422606 143.29584112 533.16796875 148.77734375 C531.36817198 171.26893046 528.83645725 193.00411422 523.26660156 214.91137695 C521.03804952 223.89903417 520.03369932 231.80819512 521.8046875 240.94921875 C522.88333273 247.36828933 523.39361351 253.77207437 523.8671875 260.26171875 C524.50830069 268.85652106 525.32204513 277.40136642 526.4296875 285.94921875 C526.54820068 286.88169434 526.66671387 287.81416992 526.78881836 288.77490234 C527.31184294 292.67006845 527.91549946 296.33507145 528.9597168 300.13623047 C530.08665629 304.56272654 530.23500695 308.77745491 530.23046875 313.328125 C530.23593216 314.1655423 530.24139557 315.00295959 530.24702454 315.86575317 C530.2585391 318.56041046 530.25230867 321.25456111 530.2421875 323.94921875 C530.24136169 324.86490631 530.24053589 325.78059387 530.23968506 326.72402954 C530.17202743 359.22070234 530.17202743 359.22070234 524.9296875 374.38671875 C525.72665039 374.36577148 526.52361328 374.34482422 527.34472656 374.32324219 C530.95625184 374.24008553 534.56757574 374.18805841 538.1796875 374.13671875 C539.43394531 374.10320312 540.68820312 374.0696875 541.98046875 374.03515625 C543.18574219 374.02226563 544.39101563 374.009375 545.6328125 373.99609375 C546.74301758 373.97514648 547.85322266 373.95419922 548.99707031 373.93261719 C552.59076326 374.48908313 553.77114374 375.50997579 555.9296875 378.38671875 C555.86151801 381.18166764 555.38494701 382.73633413 553.78588867 385.02075195 C550.99816472 387.07222052 548.7155705 386.72452508 545.29296875 386.6796875 C543.99423828 386.67001953 542.69550781 386.66035156 541.35742188 386.65039062 C539.98567111 386.6253246 538.61392632 386.59992976 537.2421875 386.57421875 C535.85873826 386.55916895 534.47527349 386.54548105 533.09179688 386.53320312 C529.70403543 386.49779098 526.31705611 386.44839929 522.9296875 386.38671875 C522.80198975 387.04551025 522.67429199 387.70430176 522.54272461 388.38305664 C521.65443675 392.90573925 520.74889741 397.38668376 519.4921875 401.82421875 C518.71441924 404.57929835 517.94419511 407.32901993 517.24609375 410.10546875 C515.27695256 417.84853242 512.50597446 425.23414483 508.9296875 432.38671875 C509.68765625 432.38929688 510.445625 432.391875 511.2265625 432.39453125 C529.34399829 433.00937636 554.11527715 436.16164604 569.9296875 445.38671875 C570.24393257 448.84341457 570.30925586 450.78573552 568.4296875 453.76171875 C564.30659571 456.44172841 559.95857322 455.78879947 555.30322266 454.86621094 C552.35340176 454.14479014 549.42295139 453.3694615 546.4921875 452.57421875 C537.84718957 450.31400218 529.26553851 448.41073348 520.44921875 446.9765625 C517.48970226 446.4805725 514.59770468 445.89171055 511.6796875 445.19921875 C508.54743117 444.52056321 506.08990696 444.31588624 502.9296875 444.38671875 C502.60097656 445.01835938 502.27226563 445.65 501.93359375 446.30078125 C494.56414314 460.1609404 485.94358682 473.25645534 475.57421875 485.0703125 C475.03152344 485.83472656 474.48882813 486.59914063 473.9296875 487.38671875 C474.64063085 490.63349702 474.64063085 490.63349702 477.71875 491.97265625 C478.99404987 492.5761326 480.2730477 493.17182648 481.5546875 493.76171875 C525.09546186 514.74950214 525.09546186 514.74950214 535.9296875 527.38671875 C536.46489063 530.9802255 536.37783521 532.70553423 534.3671875 535.76171875 C531.11286247 537.93126877 528.75838336 537.68123382 524.9296875 537.38671875 C524.9296875 536.72671875 524.9296875 536.06671875 524.9296875 535.38671875 C524.1881543 535.27513428 523.44662109 535.1635498 522.68261719 535.04858398 C519.82829804 534.36234248 518.24707961 533.49694774 515.8828125 531.796875 C515.1292749 531.26489502 514.3757373 530.73291504 513.59936523 530.18481445 C512.80087158 529.61206787 512.00237793 529.03932129 511.1796875 528.44921875 C503.04336932 522.751843 494.76947255 517.5223823 486.12695312 512.63232422 C483.74661947 511.28293952 481.37757791 509.91472435 479.0078125 508.546875 C477.37824279 507.61736908 475.74804953 506.68895535 474.1171875 505.76171875 C473.35784912 505.3231958 472.59851074 504.88467285 471.81616211 504.43286133 C470.74893921 503.83380981 470.74893921 503.83380981 469.66015625 503.22265625 C468.72272583 502.68970947 468.72272583 502.68970947 467.76635742 502.14599609 C465.64482803 501.13202493 465.64482803 501.13202493 461.9296875 501.38671875 C459.97192832 503.12628492 458.25264705 504.84018847 456.4921875 506.76171875 C443.4207653 520.38769836 427.60571519 530.35106025 410.69140625 538.5390625 C407.41368399 540.12883617 404.23005994 541.849732 401.0546875 543.63671875 C396.15547173 546.34225582 391.17568613 548.45225676 385.9296875 550.38671875 C385.1253125 550.6909375 384.3209375 550.99515625 383.4921875 551.30859375 C380.64855001 552.36628818 377.7915433 553.37931762 374.9296875 554.38671875 C373.99455322 554.72340576 373.99455322 554.72340576 373.04052734 555.06689453 C344.86296327 565.16650093 314.60976043 570.14719589 284.9296875 573.38671875 C283.71555176 573.52352051 282.50141602 573.66032227 281.25048828 573.80126953 C258.82514227 576.26519644 236.6302788 576.83202916 214.08203125 576.42382812 C212.08733961 576.38943689 210.09249511 576.36424545 208.09765625 576.33984375 C170.37745178 575.83634825 127.82026883 571.07021754 93.11499023 555.34838867 C89.95497166 553.9577828 86.74136317 552.80573433 83.4921875 551.63671875 C75.29384782 548.61985399 67.35231744 545.12605652 59.40576172 541.50488281 C56.77761613 540.31804523 54.13808425 539.15957305 51.49609375 538.00390625 C31.03933584 528.99196171 10.36365231 517.83616032 -6.0703125 502.38671875 C-6.0703125 501.72671875 -6.0703125 501.06671875 -6.0703125 500.38671875 C-7.0603125 500.05671875 -8.0503125 499.72671875 -9.0703125 499.38671875 C-10.91164355 497.40440412 -12.56642116 495.31329403 -14.25390625 493.19921875 C-16.31144765 491.14610217 -17.16866086 490.47739536 -20.0703125 490.38671875 C-22.84833235 491.57793803 -22.84833235 491.57793803 -25.6328125 493.32421875 C-30.77418494 496.38671875 -30.77418494 496.38671875 -34.0703125 496.38671875 C-34.0703125 497.04671875 -34.0703125 497.70671875 -34.0703125 498.38671875 C-34.77196533 498.65919434 -35.47361816 498.93166992 -36.1965332 499.21240234 C-44.55555491 502.56420949 -52.40581263 506.6322077 -60.2578125 511.01171875 C-60.8893927 511.36032959 -61.5209729 511.70894043 -62.17169189 512.06811523 C-70.66356586 516.75569189 -79.01169607 521.59813189 -86.88354492 527.28759766 C-91.07340026 530.20331509 -93.98707965 531.03617356 -99.0703125 530.38671875 C-101.0703125 528.38671875 -101.0703125 528.38671875 -101.8203125 524.69921875 C-101.76196289 522.52197266 -101.76196289 522.52197266 -101.0703125 520.38671875 C-94.90431303 514.66260099 -86.70868203 510.74127754 -79.3828125 506.69921875 C-78.30136963 506.09835449 -77.21992676 505.49749023 -76.10571289 504.87841797 C-59.97840509 495.96351912 -43.59393365 487.54061017 -27.0703125 479.38671875 C-27.47121094 478.76667969 -27.87210937 478.14664062 -28.28515625 477.5078125 C-31.89307334 471.88731581 -35.42429571 466.22520821 -38.8828125 460.51171875 C-39.26751709 459.88193115 -39.65222168 459.25214355 -40.04858398 458.60327148 C-42.04629845 455.28435237 -43.7594758 452.03486744 -45.0703125 448.38671875 C-45.9675 448.68964844 -46.8646875 448.99257813 -47.7890625 449.3046875 C-49.036875 449.72363281 -50.2846875 450.14257812 -51.5703125 450.57421875 C-52.25174316 450.80343018 -52.93317383 451.0326416 -53.63525391 451.26879883 C-58.21375147 452.79828776 -62.81610309 454.20405106 -67.4453125 455.57421875 C-80.28340611 459.45915173 -92.84348004 464.69442624 -105.078125 470.171875 C-108.62776334 471.6130467 -111.27347408 471.75895781 -115.0703125 471.38671875 C-117.0703125 469.38671875 -117.0703125 469.38671875 -117.5078125 466.01171875 C-117.0703125 462.38671875 -117.0703125 462.38671875 -114.87890625 460.296875 C-112.1457083 458.43799628 -109.79740225 457.30832207 -106.6953125 456.19921875 C-105.56738281 455.78542969 -104.43945312 455.37164063 -103.27734375 454.9453125 C-102.62846191 454.70796387 -101.97958008 454.47061523 -101.31103516 454.22607422 C-98.67967334 453.24038867 -96.06864263 452.20875495 -93.45703125 451.171875 C-92.45784668 450.77572998 -91.45866211 450.37958496 -90.42919922 449.97143555 C-88.44165043 449.18218212 -86.45495413 448.39077755 -84.46923828 447.59692383 C-78.40802772 445.20434071 -72.33082886 443.18563258 -66.0703125 441.38671875 C-62.63100788 440.31551866 -59.19378176 439.2380941 -55.7578125 438.15625 C-53.0703125 437.38671875 -53.0703125 437.38671875 -51.0703125 437.38671875 C-51.65039062 435.78957031 -51.65039062 435.78957031 -52.2421875 434.16015625 C-57.96720131 418.26204903 -63.02865952 402.21011207 -65.0703125 385.38671875 C-65.67974701 385.38085251 -66.28918152 385.37498627 -66.91708374 385.36894226 C-73.24353566 385.30515224 -79.56947204 385.22077091 -85.89550781 385.12426758 C-88.25839453 385.09095315 -90.62136208 385.06294178 -92.984375 385.0402832 C-96.37535143 385.00685705 -99.76558266 384.95454728 -103.15625 384.8984375 C-104.21774261 384.89204758 -105.27923523 384.88565765 -106.37289429 384.8790741 C-107.84419296 384.84938286 -107.84419296 384.84938286 -109.34521484 384.8190918 C-110.21125336 384.80798874 -111.07729187 384.79688568 -111.96957397 384.78544617 C-113.00943954 384.5880761 -113.00943954 384.5880761 -114.0703125 384.38671875 C-116.0703125 381.38671875 -116.0703125 381.38671875 -115.8828125 377.82421875 C-115.0703125 374.38671875 -115.0703125 374.38671875 -112.0703125 372.38671875 C-109.96321106 372.14620972 -109.96321106 372.14620972 -107.50708008 372.15966797 C-106.58635208 372.15981903 -105.66562408 372.15997009 -104.71699524 372.16012573 C-103.23093025 372.17560959 -103.23093025 372.17560959 -101.71484375 372.19140625 C-100.18968391 372.19565109 -100.18968391 372.19565109 -98.63371277 372.19998169 C-95.38329342 372.21118492 -92.13314869 372.23628989 -88.8828125 372.26171875 C-86.68034252 372.27174836 -84.47786822 372.28087424 -82.27539062 372.2890625 C-76.87360407 372.3111247 -71.47197791 372.34460367 -66.0703125 372.38671875 C-66.1017334 371.46487793 -66.1331543 370.54303711 -66.16552734 369.59326172 C-66.8665851 345.57685684 -65.02550438 322.9269536 -60.4498291 299.34320068 C-60.10725083 297.57714302 -59.77331599 295.80941404 -59.44042969 294.04150391 C-55.71403903 274.614716 -49.37128993 255.70016782 -42.19042969 237.29956055 C-40.82690812 233.75375066 -39.61666547 230.18788252 -38.4453125 226.57421875 C-36.23684042 219.77834996 -36.23684042 219.77834996 -35.26586914 217.49487305 C-33.02448578 212.16719042 -32.63838135 207.57225375 -32.7578125 201.82421875 C-32.7676416 200.9209082 -32.7774707 200.01759766 -32.78759766 199.08691406 C-33.06005855 184.25180038 -34.68841063 169.46444553 -36.60546875 154.76171875 C-38.03007839 142.26734193 -38.22994573 129.80258633 -38.20068359 117.24462891 C-38.1953335 114.52240395 -38.20065832 111.80034492 -38.20703125 109.078125 C-38.22067337 76.04756867 -36.65318623 25.91996131 -12.0703125 0.38671875 C-8.26540974 -1.51573263 -3.99392641 -1.1831065 0 0 Z " fill="#FDFDFD" transform="translate(278.0703125,175.61328125)"/>
<path d="M0 0 C20.06555056 8.4038376 38.17158768 23.95329989 53.91015625 38.61328125 C56.16534489 40.70555912 58.46677764 42.73640178 60.7890625 44.75390625 C64.94389187 48.37429699 68.97880617 52.11079258 72.9921875 55.88671875 C73.66056641 56.51191406 74.32894531 57.13710937 75.01757812 57.78125 C81.20850936 63.59314463 87.25354446 69.47193826 92.796875 75.91015625 C94.47878507 77.8631434 96.17243656 79.8034034 97.875 81.73828125 C103.93029952 88.64146827 109.81837085 95.62464127 115.41503906 102.90673828 C116.57332481 104.4103763 117.75051685 105.89940246 118.9296875 107.38671875 C119.3726416 107.95302002 119.8155957 108.51932129 120.27197266 109.1027832 C121.86767543 110.61591909 121.86767543 110.61591909 124.11035156 110.34545898 C124.96338867 110.15153564 125.81642578 109.9576123 126.6953125 109.7578125 C128.16774414 109.44239502 128.16774414 109.44239502 129.66992188 109.12060547 C130.74564453 108.87842285 131.82136719 108.63624023 132.9296875 108.38671875 C135.27759034 107.91399784 137.62661237 107.44681116 139.9765625 106.984375 C141.22139404 106.73526367 142.46622559 106.48615234 143.7487793 106.22949219 C188.66863537 97.28264657 233.94930453 94.44110651 279.3671875 101.13671875 C280.28522156 101.27021729 281.20325562 101.40371582 282.14910889 101.54125977 C304.55352646 104.80570487 326.52799852 109.03357471 348.44921875 114.74121094 C356.10444684 117.13921553 356.10444684 117.13921553 363.9296875 117.38671875 C366.11746216 115.44921815 366.11746216 115.44921815 367.9296875 113.38671875 C368.5896875 113.38671875 369.2496875 113.38671875 369.9296875 113.38671875 C369.9296875 112.72671875 369.9296875 112.06671875 369.9296875 111.38671875 C371.625 110.046875 371.625 110.046875 374.0546875 108.44921875 C379.3500516 104.86839948 384.32521214 100.97298616 389.28173828 96.94360352 C393.71711949 93.38671875 393.71711949 93.38671875 395.9296875 93.38671875 C395.9296875 92.72671875 395.9296875 92.06671875 395.9296875 91.38671875 C397.36669922 90.05810547 397.36669922 90.05810547 399.359375 88.56640625 C400.07222656 88.03144531 400.78507813 87.49648438 401.51953125 86.9453125 C402.27363281 86.38972656 403.02773438 85.83414063 403.8046875 85.26171875 C404.92423828 84.41673828 404.92423828 84.41673828 406.06640625 83.5546875 C411.66742963 79.38671875 411.66742963 79.38671875 413.9296875 79.38671875 C413.9296875 78.72671875 413.9296875 78.06671875 413.9296875 77.38671875 C419.34145221 73.38671875 419.34145221 73.38671875 421.9296875 73.38671875 C421.9296875 72.72671875 421.9296875 72.06671875 421.9296875 71.38671875 C423.68832658 70.02262652 425.51672208 68.7483823 427.3671875 67.51171875 C428.56192976 66.70551056 429.75590103 65.89815899 430.94921875 65.08984375 C431.59197754 64.65607422 432.23473633 64.22230469 432.89697266 63.77539062 C435.74735945 61.82811701 438.55589877 59.82402923 441.36694336 57.82055664 C448.42797126 52.78934772 455.56023259 47.95851022 462.9296875 43.38671875 C464.72241088 42.24253942 466.51405352 41.09666523 468.3046875 39.94921875 C470.17853177 38.75989587 472.05356689 37.57244751 473.9296875 36.38671875 C474.90292969 35.77054688 475.87617187 35.154375 476.87890625 34.51953125 C483.26205194 30.53106632 489.73513479 26.74605153 496.3046875 23.07421875 C497.05371338 22.65358154 497.80273926 22.23294434 498.57446289 21.79956055 C513.08809882 13.76086593 513.08809882 13.76086593 519.9296875 15.38671875 C524.39945023 17.86190994 528.24548204 21.00762928 530.9296875 25.38671875 C531.80859375 28.6015625 531.80859375 28.6015625 532.4921875 32.32421875 C532.61513184 32.99026123 532.73807617 33.65630371 532.86474609 34.3425293 C533.23115987 36.3554102 533.58086331 38.37072755 533.9296875 40.38671875 C534.12691406 41.45664063 534.32414063 42.5265625 534.52734375 43.62890625 C539.53041255 72.75788462 537.26326352 103.08400286 534.56912231 132.34220886 C534.06501136 137.81791032 533.60422606 143.29584112 533.16796875 148.77734375 C531.36817198 171.26893046 528.83645725 193.00411422 523.26660156 214.91137695 C521.03804952 223.89903417 520.03369932 231.80819512 521.8046875 240.94921875 C522.88333273 247.36828933 523.39361351 253.77207437 523.8671875 260.26171875 C524.50830069 268.85652106 525.32204513 277.40136642 526.4296875 285.94921875 C526.54820068 286.88169434 526.66671387 287.81416992 526.78881836 288.77490234 C527.31184294 292.67006845 527.91549946 296.33507145 528.9597168 300.13623047 C530.08665629 304.56272654 530.23500695 308.77745491 530.23046875 313.328125 C530.23593216 314.1655423 530.24139557 315.00295959 530.24702454 315.86575317 C530.2585391 318.56041046 530.25230867 321.25456111 530.2421875 323.94921875 C530.24136169 324.86490631 530.24053589 325.78059387 530.23968506 326.72402954 C530.17202743 359.22070234 530.17202743 359.22070234 524.9296875 374.38671875 C525.72665039 374.36577148 526.52361328 374.34482422 527.34472656 374.32324219 C530.95625184 374.24008553 534.56757574 374.18805841 538.1796875 374.13671875 C539.43394531 374.10320312 540.68820312 374.0696875 541.98046875 374.03515625 C543.18574219 374.02226563 544.39101563 374.009375 545.6328125 373.99609375 C546.74301758 373.97514648 547.85322266 373.95419922 548.99707031 373.93261719 C552.59076326 374.48908313 553.77114374 375.50997579 555.9296875 378.38671875 C555.86151801 381.18166764 555.38494701 382.73633413 553.78588867 385.02075195 C550.99816472 387.07222052 548.7155705 386.72452508 545.29296875 386.6796875 C543.99423828 386.67001953 542.69550781 386.66035156 541.35742188 386.65039062 C539.98567111 386.6253246 538.61392632 386.59992976 537.2421875 386.57421875 C535.85873826 386.55916895 534.47527349 386.54548105 533.09179688 386.53320312 C529.70403543 386.49779098 526.31705611 386.44839929 522.9296875 386.38671875 C522.80198975 387.04551025 522.67429199 387.70430176 522.54272461 388.38305664 C521.65443675 392.90573925 520.74889741 397.38668376 519.4921875 401.82421875 C518.71441924 404.57929835 517.94419511 407.32901993 517.24609375 410.10546875 C515.27695256 417.84853242 512.50597446 425.23414483 508.9296875 432.38671875 C509.68765625 432.38929688 510.445625 432.391875 511.2265625 432.39453125 C529.34399829 433.00937636 554.11527715 436.16164604 569.9296875 445.38671875 C570.24393257 448.84341457 570.30925586 450.78573552 568.4296875 453.76171875 C564.30659571 456.44172841 559.95857322 455.78879947 555.30322266 454.86621094 C552.35340176 454.14479014 549.42295139 453.3694615 546.4921875 452.57421875 C537.84718957 450.31400218 529.26553851 448.41073348 520.44921875 446.9765625 C517.48970226 446.4805725 514.59770468 445.89171055 511.6796875 445.19921875 C508.54743117 444.52056321 506.08990696 444.31588624 502.9296875 444.38671875 C502.60097656 445.01835938 502.27226563 445.65 501.93359375 446.30078125 C494.56414314 460.1609404 485.94358682 473.25645534 475.57421875 485.0703125 C475.03152344 485.83472656 474.48882813 486.59914063 473.9296875 487.38671875 C474.64063085 490.63349702 474.64063085 490.63349702 477.71875 491.97265625 C478.99404987 492.5761326 480.2730477 493.17182648 481.5546875 493.76171875 C525.09546186 514.74950214 525.09546186 514.74950214 535.9296875 527.38671875 C536.46489063 530.9802255 536.37783521 532.70553423 534.3671875 535.76171875 C531.11286247 537.93126877 528.75838336 537.68123382 524.9296875 537.38671875 C524.9296875 536.72671875 524.9296875 536.06671875 524.9296875 535.38671875 C524.1881543 535.27513428 523.44662109 535.1635498 522.68261719 535.04858398 C519.82829804 534.36234248 518.24707961 533.49694774 515.8828125 531.796875 C515.1292749 531.26489502 514.3757373 530.73291504 513.59936523 530.18481445 C512.80087158 529.61206787 512.00237793 529.03932129 511.1796875 528.44921875 C503.04336932 522.751843 494.76947255 517.5223823 486.12695312 512.63232422 C483.74661947 511.28293952 481.37757791 509.91472435 479.0078125 508.546875 C477.37824279 507.61736908 475.74804953 506.68895535 474.1171875 505.76171875 C473.35784912 505.3231958 472.59851074 504.88467285 471.81616211 504.43286133 C470.74893921 503.83380981 470.74893921 503.83380981 469.66015625 503.22265625 C468.72272583 502.68970947 468.72272583 502.68970947 467.76635742 502.14599609 C465.64482803 501.13202493 465.64482803 501.13202493 461.9296875 501.38671875 C459.97192832 503.12628492 458.25264705 504.84018847 456.4921875 506.76171875 C443.4207653 520.38769836 427.60571519 530.35106025 410.69140625 538.5390625 C407.41368399 540.12883617 404.23005994 541.849732 401.0546875 543.63671875 C396.15547173 546.34225582 391.17568613 548.45225676 385.9296875 550.38671875 C385.1253125 550.6909375 384.3209375 550.99515625 383.4921875 551.30859375 C380.64855001 552.36628818 377.7915433 553.37931762 374.9296875 554.38671875 C373.99455322 554.72340576 373.99455322 554.72340576 373.04052734 555.06689453 C344.86296327 565.16650093 314.60976043 570.14719589 284.9296875 573.38671875 C283.71555176 573.52352051 282.50141602 573.66032227 281.25048828 573.80126953 C258.82514227 576.26519644 236.6302788 576.83202916 214.08203125 576.42382812 C212.08733961 576.38943689 210.09249511 576.36424545 208.09765625 576.33984375 C170.37745178 575.83634825 127.82026883 571.07021754 93.11499023 555.34838867 C89.95497166 553.9577828 86.74136317 552.80573433 83.4921875 551.63671875 C75.29384782 548.61985399 67.35231744 545.12605652 59.40576172 541.50488281 C56.77761613 540.31804523 54.13808425 539.15957305 51.49609375 538.00390625 C31.03933584 528.99196171 10.36365231 517.83616032 -6.0703125 502.38671875 C-6.0703125 501.72671875 -6.0703125 501.06671875 -6.0703125 500.38671875 C-7.0603125 500.05671875 -8.0503125 499.72671875 -9.0703125 499.38671875 C-10.91164355 497.40440412 -12.56642116 495.31329403 -14.25390625 493.19921875 C-16.31144765 491.14610217 -17.16866086 490.47739536 -20.0703125 490.38671875 C-22.84833235 491.57793803 -22.84833235 491.57793803 -25.6328125 493.32421875 C-30.77418494 496.38671875 -30.77418494 496.38671875 -34.0703125 496.38671875 C-34.0703125 497.04671875 -34.0703125 497.70671875 -34.0703125 498.38671875 C-34.77196533 498.65919434 -35.47361816 498.93166992 -36.1965332 499.21240234 C-44.55555491 502.56420949 -52.40581263 506.6322077 -60.2578125 511.01171875 C-60.8893927 511.36032959 -61.5209729 511.70894043 -62.17169189 512.06811523 C-70.66356586 516.75569189 -79.01169607 521.59813189 -86.88354492 527.28759766 C-91.07340026 530.20331509 -93.98707965 531.03617356 -99.0703125 530.38671875 C-101.0703125 528.38671875 -101.0703125 528.38671875 -101.8203125 524.69921875 C-101.76196289 522.52197266 -101.76196289 522.52197266 -101.0703125 520.38671875 C-94.90431303 514.66260099 -86.70868203 510.74127754 -79.3828125 506.69921875 C-78.30136963 506.09835449 -77.21992676 505.49749023 -76.10571289 504.87841797 C-59.97840509 495.96351912 -43.59393365 487.54061017 -27.0703125 479.38671875 C-27.47121094 478.76667969 -27.87210937 478.14664062 -28.28515625 477.5078125 C-31.89307334 471.88731581 -35.42429571 466.22520821 -38.8828125 460.51171875 C-39.26751709 459.88193115 -39.65222168 459.25214355 -40.04858398 458.60327148 C-42.04629845 455.28435237 -43.7594758 452.03486744 -45.0703125 448.38671875 C-45.9675 448.68964844 -46.8646875 448.99257813 -47.7890625 449.3046875 C-49.036875 449.72363281 -50.2846875 450.14257812 -51.5703125 450.57421875 C-52.25174316 450.80343018 -52.93317383 451.0326416 -53.63525391 451.26879883 C-58.21375147 452.79828776 -62.81610309 454.20405106 -67.4453125 455.57421875 C-80.28340611 459.45915173 -92.84348004 464.69442624 -105.078125 470.171875 C-108.62776334 471.6130467 -111.27347408 471.75895781 -115.0703125 471.38671875 C-117.0703125 469.38671875 -117.0703125 469.38671875 -117.5078125 466.01171875 C-117.0703125 462.38671875 -117.0703125 462.38671875 -114.87890625 460.296875 C-112.1457083 458.43799628 -109.79740225 457.30832207 -106.6953125 456.19921875 C-105.56738281 455.78542969 -104.43945312 455.37164063 -103.27734375 454.9453125 C-102.62846191 454.70796387 -101.97958008 454.47061523 -101.31103516 454.22607422 C-98.67967334 453.24038867 -96.06864263 452.20875495 -93.45703125 451.171875 C-92.45784668 450.77572998 -91.45866211 450.37958496 -90.42919922 449.97143555 C-88.44165043 449.18218212 -86.45495413 448.39077755 -84.46923828 447.59692383 C-78.40802772 445.20434071 -72.33082886 443.18563258 -66.0703125 441.38671875 C-62.63100788 440.31551866 -59.19378176 439.2380941 -55.7578125 438.15625 C-53.0703125 437.38671875 -53.0703125 437.38671875 -51.0703125 437.38671875 C-51.65039062 435.78957031 -51.65039062 435.78957031 -52.2421875 434.16015625 C-57.96720131 418.26204903 -63.02865952 402.21011207 -65.0703125 385.38671875 C-65.67974701 385.38085251 -66.28918152 385.37498627 -66.91708374 385.36894226 C-73.24353566 385.30515224 -79.56947204 385.22077091 -85.89550781 385.12426758 C-88.25839453 385.09095315 -90.62136208 385.06294178 -92.984375 385.0402832 C-96.37535143 385.00685705 -99.76558266 384.95454728 -103.15625 384.8984375 C-104.21774261 384.89204758 -105.27923523 384.88565765 -106.37289429 384.8790741 C-107.84419296 384.84938286 -107.84419296 384.84938286 -109.34521484 384.8190918 C-110.21125336 384.80798874 -111.07729187 384.79688568 -111.96957397 384.78544617 C-113.00943954 384.5880761 -113.00943954 384.5880761 -114.0703125 384.38671875 C-116.0703125 381.38671875 -116.0703125 381.38671875 -115.8828125 377.82421875 C-115.0703125 374.38671875 -115.0703125 374.38671875 -112.0703125 372.38671875 C-109.96321106 372.14620972 -109.96321106 372.14620972 -107.50708008 372.15966797 C-106.58635208 372.15981903 -105.66562408 372.15997009 -104.71699524 372.16012573 C-103.23093025 372.17560959 -103.23093025 372.17560959 -101.71484375 372.19140625 C-100.18968391 372.19565109 -100.18968391 372.19565109 -98.63371277 372.19998169 C-95.38329342 372.21118492 -92.13314869 372.23628989 -88.8828125 372.26171875 C-86.68034252 372.27174836 -84.47786822 372.28087424 -82.27539062 372.2890625 C-76.87360407 372.3111247 -71.47197791 372.34460367 -66.0703125 372.38671875 C-66.1017334 371.46487793 -66.1331543 370.54303711 -66.16552734 369.59326172 C-66.8665851 345.57685684 -65.02550438 322.9269536 -60.4498291 299.34320068 C-60.10725083 297.57714302 -59.77331599 295.80941404 -59.44042969 294.04150391 C-55.71403903 274.614716 -49.37128993 255.70016782 -42.19042969 237.29956055 C-40.82690812 233.75375066 -39.61666547 230.18788252 -38.4453125 226.57421875 C-36.23684042 219.77834996 -36.23684042 219.77834996 -35.26586914 217.49487305 C-33.02448578 212.16719042 -32.63838135 207.57225375 -32.7578125 201.82421875 C-32.7676416 200.9209082 -32.7774707 200.01759766 -32.78759766 199.08691406 C-33.06005855 184.25180038 -34.68841063 169.46444553 -36.60546875 154.76171875 C-38.03007839 142.26734193 -38.22994573 129.80258633 -38.20068359 117.24462891 C-38.1953335 114.52240395 -38.20065832 111.80034492 -38.20703125 109.078125 C-38.22067337 76.04756867 -36.65318623 25.91996131 -12.0703125 0.38671875 C-8.26540974 -1.51573263 -3.99392641 -1.1831065 0 0 Z M-0.0703125 30.38671875 C-5.22798195 45.12582946 -8.69378195 59.94948451 -11.0703125 75.38671875 C-11.17762695 76.0734668 -11.28494141 76.76021484 -11.39550781 77.46777344 C-15.68763004 106.31355998 -14.41443601 138.22804653 -9.8984375 166.9140625 C-8.74515931 174.29149015 -7.92561764 181.70970074 -7.07275391 189.12670898 C-6.95593262 190.13032471 -6.83911133 191.13394043 -6.71875 192.16796875 C-6.61739746 193.05548828 -6.51604492 193.94300781 -6.41162109 194.85742188 C-6.0690422 197.39613244 -5.59017591 199.87901698 -5.0703125 202.38671875 C-3.65164937 212.7632262 -8.90732735 221.88696699 -13.1015625 231.0703125 C-14.67635389 234.83584192 -15.87673265 238.72047203 -17.1328125 242.6015625 C-17.88040841 244.82254534 -18.68071045 246.936948 -19.6328125 249.07421875 C-22.40666146 255.46613157 -24.33243153 262.13492532 -26.2265625 268.83203125 C-27.0703125 271.38671875 -27.0703125 271.38671875 -28.50390625 274.4765625 C-30.65205116 279.39115717 -31.56590763 284.5906633 -32.6328125 289.82421875 C-33.04963419 291.8231562 -33.46758225 293.82185914 -33.88671875 295.8203125 C-34.08612061 296.78122803 -34.28552246 297.74214355 -34.4909668 298.73217773 C-34.97580816 300.9537033 -35.5257512 303.13192168 -36.125 305.32421875 C-37.52201744 310.77447558 -38.01126641 316.36845837 -38.6328125 321.94921875 C-38.88344745 324.13809733 -39.13473191 326.32690164 -39.38671875 328.515625 C-39.49443604 329.4754126 -39.60215332 330.4352002 -39.71313477 331.42407227 C-39.96966026 333.55184865 -40.27240561 335.67424295 -40.60473633 337.79150391 C-41.08441846 341.49564605 -41.19975395 345.04732974 -41.203125 348.78125 C-41.20408173 349.45467941 -41.20503845 350.12810883 -41.20602417 350.82194519 C-41.20669937 352.23115127 -41.20489161 353.64036059 -41.20068359 355.04956055 C-41.19528345 357.21084468 -41.20067239 359.37192499 -41.20703125 361.53320312 C-41.20637117 362.90755254 -41.20509147 364.28190183 -41.203125 365.65625 C-41.20199707 366.89995361 -41.20086914 368.14365723 -41.19970703 369.42504883 C-41.27500624 372.31712072 -41.27500624 372.31712072 -40.0703125 374.38671875 C-37.09960711 374.95266967 -37.09960711 374.95266967 -33.43359375 375.24609375 C-31.99313914 375.39029487 -30.55271069 375.53475749 -29.11230469 375.67944336 C-28.34317749 375.75339325 -27.57405029 375.82734314 -26.78161621 375.90353394 C5.61768989 379.05303139 40.06286971 382.65957935 70.9296875 393.38671875 C71.9196875 393.71671875 72.9096875 394.04671875 73.9296875 394.38671875 C73.33107008 396.73843006 72.66044398 399.07265655 71.9296875 401.38671875 C65.08089372 404.81111564 55.98832682 401.63009118 49.1171875 399.63671875 C28.31457415 393.94428675 7.30886807 391.06104641 -14.0703125 388.38671875 C-15.02212402 388.26522461 -15.97393555 388.14373047 -16.95458984 388.01855469 C-24.01683033 387.117793 -30.93323809 386.2773383 -38.0703125 386.38671875 C-37.47774336 391.7677254 -36.59992606 396.94930061 -35.2578125 402.19921875 C-35.08185547 402.89281494 -34.90589844 403.58641113 -34.72460938 404.30102539 C-32.36717011 413.36059736 -29.0082501 421.90339573 -25.0703125 430.38671875 C-19.42715988 430.56326431 -14.49872028 429.97375849 -9.0078125 428.63671875 C-0.18170232 426.63792814 8.71054892 425.34979771 17.6796875 424.19921875 C19.59599976 423.94930176 19.59599976 423.94930176 21.55102539 423.69433594 C33.19319497 422.23747551 44.88106323 421.27911864 56.6171875 421.13671875 C57.92042969 421.1109375 59.22367187 421.08515625 60.56640625 421.05859375 C64.07963625 421.4013479 65.42540335 421.977534 67.9296875 424.38671875 C67.7421875 426.69921875 67.7421875 426.69921875 66.9296875 429.38671875 C63.03197079 432.38530716 59.9310429 432.79558646 55.0859375 432.94140625 C53.69765405 432.99627928 52.30938984 433.05164076 50.92114258 433.10742188 C50.18989166 433.13199463 49.45864075 433.15656738 48.70523071 433.18188477 C34.60951312 433.67641165 20.71032268 434.94900163 6.7421875 436.88671875 C5.95295898 436.99449646 5.16373047 437.10227417 4.35058594 437.21331787 C-3.23290541 438.25699944 -10.66019778 439.44314946 -18.0703125 441.38671875 C-17.58561875 446.23365629 -15.20912138 449.46223356 -12.3828125 453.26171875 C-11.93309082 453.87869629 -11.48336914 454.49567383 -11.02001953 455.13134766 C-7.88818435 459.38996878 -4.61853182 463.46500266 -1.0703125 467.38671875 C2.41873739 466.78100513 5.47789815 465.87073824 8.73828125 464.49609375 C9.64352539 464.11864014 10.54876953 463.74118652 11.48144531 463.35229492 C12.43374023 462.95115479 13.38603516 462.55001465 14.3671875 462.13671875 C21.84894217 459.02627808 29.32738675 456.08157586 36.984375 453.4296875 C39.63221241 452.49205807 42.21334646 451.46858226 44.8046875 450.38671875 C49.16568044 448.62499313 53.58458346 447.09415999 58.0546875 445.63671875 C59.04057861 445.30220703 59.04057861 445.30220703 60.04638672 444.9609375 C64.82255083 443.44249692 68.91436513 443.02000701 73.9296875 443.38671875 C75.9296875 445.38671875 75.9296875 445.38671875 76.3046875 447.82421875 C75.9296875 450.38671875 75.9296875 450.38671875 74.28320312 451.9230957 C71.54047914 453.62876275 69.00024881 454.46452292 65.8984375 455.3671875 C64.10768799 455.90037598 64.10768799 455.90037598 62.28076172 456.44433594 C61.65200134 456.62847046 61.02324097 456.81260498 60.37542725 457.00231934 C42.28894781 462.3183679 24.78054335 468.88469603 7.9296875 477.38671875 C28.17272248 502.42415675 61.40561734 516.20756628 90.9296875 527.2421875 C93.92363738 528.38441056 96.86058187 529.62216274 99.8046875 530.88671875 C110.73969321 535.43942541 121.81195526 538.7233153 133.3046875 541.51171875 C134.29557373 541.7533374 135.28645996 541.99495605 136.30737305 542.24389648 C151.59035812 545.85188156 166.93693494 548.08587176 182.5546875 549.57421875 C183.45775635 549.66043488 184.3608252 549.746651 185.29125977 549.83547974 C239.92075786 554.92346278 297.67457758 551.13297133 350.55859375 536.05566406 C352.82017492 535.41761501 355.0890516 534.82957524 357.3671875 534.25390625 C368.68968076 531.29233811 379.07576575 526.49315389 389.61230469 521.45239258 C391.22774538 520.70951451 392.86497393 520.01301029 394.51611328 519.35327148 C404.95788364 515.17170474 414.41378444 508.56031449 423.4296875 501.94921875 C424.27289551 501.33401367 425.11610352 500.71880859 425.98486328 500.08496094 C429.03954366 497.83518103 429.03954366 497.83518103 431.9296875 495.38671875 C431.9296875 494.72671875 431.9296875 494.06671875 431.9296875 493.38671875 C432.5484375 493.13921875 433.1671875 492.89171875 433.8046875 492.63671875 C436.30448953 491.16624697 436.76284772 489.97268799 437.9296875 487.38671875 C430.09514933 482.46836978 421.59853894 479.46206944 412.9296875 476.38671875 C411.96756348 476.04060547 411.00543945 475.69449219 410.01416016 475.33789062 C397.39621072 470.80685492 384.80608974 466.54703119 371.78271484 463.32617188 C363.68713937 461.27259988 363.68713937 461.27259988 360.9296875 458.38671875 C360.42706388 455.51458379 360.55364742 454.05031888 361.9921875 451.51171875 C365.53031941 449.45731957 369.77789577 451.09762574 373.56958008 452.04931641 C376.65569165 452.88630688 379.73101693 453.75514491 382.8046875 454.63671875 C384.46491943 455.10924072 384.46491943 455.10924072 386.15869141 455.59130859 C388.383731 456.22578876 390.60818934 456.86231122 392.83203125 457.50097656 C395.53841814 458.2748394 398.24825973 459.03373119 400.9609375 459.78515625 C407.96676764 461.7485346 414.61664366 463.94133234 421.1796875 467.1328125 C425.56583822 469.1327477 430.1300029 470.60862384 434.68359375 472.1796875 C437.45715412 473.21101139 439.95949214 474.35538383 442.5546875 475.76171875 C445.61353267 477.59557492 445.61353267 477.59557492 447.95117188 477.18505859 C450.31913661 476.2295743 451.32895967 475.19332189 452.9609375 473.23828125 C453.51894043 472.57127197 454.07694336 471.9042627 454.65185547 471.21704102 C455.23854004 470.48928467 455.82522461 469.76152832 456.4296875 469.01171875 C457.03828613 468.265271 457.64688477 467.51882324 458.27392578 466.74975586 C469.75276472 453.66203469 469.75276472 453.66203469 475.9296875 438.38671875 C468.58690096 437.51461685 461.24470457 436.88456728 453.8671875 436.38671875 C453.22059174 436.34281006 452.57399597 436.29890137 451.9078064 436.25366211 C433.85203062 435.06637398 415.75027216 434.98102938 397.66186523 434.81640625 C395.28889953 434.78777763 392.91593403 434.75913252 390.54296875 434.73046875 C389.44528168 434.72527222 388.3475946 434.72007568 387.21664429 434.71472168 C386.19809357 434.70122681 385.17954285 434.68773193 384.13012695 434.67382812 C382.7993084 434.66289124 382.7993084 434.66289124 381.44160461 434.6517334 C378.64955067 434.35716349 376.47852816 433.53758543 373.9296875 432.38671875 C374.2421875 429.01171875 374.2421875 429.01171875 374.9296875 425.38671875 C378.64619961 422.90904401 380.54082036 423.12884231 384.98046875 423.12109375 C386.05142288 423.11699997 386.05142288 423.11699997 387.14401245 423.11282349 C389.51025203 423.10873179 391.8759976 423.1215306 394.2421875 423.13671875 C395.05547516 423.13915588 395.86876282 423.14159302 396.70669556 423.144104 C409.52636014 423.18879742 422.31565621 423.59130346 435.1171875 424.26171875 C435.88390778 424.30083374 436.65062805 424.33994873 437.44058228 424.38024902 C446.61886519 424.860569 455.72990303 425.60455484 464.85404968 426.72164917 C470.56967653 427.40975685 476.18111682 427.61463565 481.9296875 427.38671875 C487.40350271 417.0191316 487.40350271 417.0191316 491.2421875 405.97265625 C492.38922443 401.65823326 493.80658136 397.42524329 495.16015625 393.171875 C496.06284693 390.38636142 496.06284693 390.38636142 495.9296875 387.38671875 C481.67307123 387.72515904 467.79444018 388.97732677 453.71533203 391.2331543 C450.80032058 391.699918 447.88302256 392.14921249 444.96484375 392.59570312 C433.25549837 394.40983745 421.63437229 396.53550443 410.03430176 398.94937134 C408.17544642 399.33564905 406.31489357 399.71373834 404.45410156 400.09057617 C394.97688927 402.01287021 385.61232945 403.94185799 376.4921875 407.19921875 C371.34311519 409.01687568 367.36582018 410.23944545 361.9296875 409.38671875 C359.78052965 406.16298198 359.54681947 405.11968201 359.9296875 401.38671875 C362.0557573 399.26064895 362.99465636 398.89914301 365.8046875 398.08984375 C366.61164063 397.8563623 367.41859375 397.62288086 368.25 397.38232422 C369.13429688 397.13627441 370.01859375 396.89022461 370.9296875 396.63671875 C371.85523438 396.37648926 372.78078125 396.11625977 373.734375 395.84814453 C403.41118453 387.65651856 433.50402908 382.70984113 463.9296875 378.38671875 C465.13318848 378.20584717 466.33668945 378.02497559 467.57666016 377.83862305 C470.39380381 377.45894248 473.12379623 377.21309235 475.9609375 377.10546875 C476.85425781 377.06808594 477.74757813 377.03070312 478.66796875 376.9921875 C480.50911458 376.921875 482.35026042 376.8515625 484.19140625 376.78125 C485.08472656 376.74386719 485.97804688 376.70648437 486.8984375 376.66796875 C487.69701172 376.63767578 488.49558594 376.60738281 489.31835938 376.57617188 C492.54998459 376.34171589 495.72710071 375.87172116 498.9296875 375.38671875 C504.12247257 348.98545776 508.83766557 322.04812481 501.921875 295.453125 C500.94821961 291.6383559 500.37860064 287.86518427 499.9296875 283.94921875 C499.84775146 283.23894531 499.76581543 282.52867187 499.68139648 281.796875 C498.83007169 274.0951095 498.32037645 266.36713816 497.75439453 258.64038086 C497.26148227 252.34542043 496.50728253 246.20916275 495.3046875 240.01171875 C493.31966817 229.50853307 493.49599492 221.92248714 496.93505859 211.78100586 C499.30429397 204.65912767 500.39913134 197.47508057 501.48754883 190.0703125 C501.93763454 187.33848362 502.47365807 184.62915605 503.01683044 181.91455078 C504.82646277 172.76650799 505.78069029 163.67741335 506.4921875 154.38671875 C506.71794081 151.53215752 506.94894351 148.67806193 507.18359375 145.82421875 C507.26935165 144.77186035 507.26935165 144.77186035 507.35684204 143.69824219 C507.76678582 138.84636616 508.32393326 134.02662287 508.95703125 129.19921875 C510.7162611 115.61854971 511.16247824 102.12412598 511.1796875 88.44921875 C511.18202393 87.59786346 511.18436035 86.74650818 511.18676758 85.86935425 C511.20093494 72.15292985 510.35529213 58.91523979 507.9296875 45.38671875 C503.34597172 45.92648341 500.11611974 47.9259491 496.3671875 50.44921875 C495.75367432 50.85333984 495.14016113 51.25746094 494.50805664 51.67382812 C492.64376155 52.90433509 490.78666961 54.14521367 488.9296875 55.38671875 C487.3828125 56.40572266 487.3828125 56.40572266 485.8046875 57.4453125 C472.94887481 65.94177381 460.41715784 74.86789636 447.95068359 83.92089844 C446.23417195 85.16587741 444.513964 86.40575758 442.79296875 87.64453125 C435.72263243 92.74343072 428.80794461 98.03343319 421.9296875 103.38671875 C421.37410156 103.81855469 420.81851562 104.25039063 420.24609375 104.6953125 C413.46887808 109.96995841 406.76439935 115.32420021 400.1171875 120.76171875 C394.41687051 125.41806 388.64809867 129.97365799 382.8046875 134.44921875 C381.75704224 135.25335205 381.75704224 135.25335205 380.68823242 136.07373047 C368.86406307 145.07893996 368.86406307 145.07893996 362.51171875 144.7734375 C358.44430128 144.16424789 354.65242033 142.89657669 350.75390625 141.609375 C346.17302209 140.10876183 341.52563363 138.87108739 336.8671875 137.63671875 C336.04557129 137.41411377 335.22395508 137.19150879 334.37744141 136.9621582 C333.59933105 136.75679443 332.8212207 136.55143066 332.01953125 136.33984375 C331.32722412 136.15583008 330.63491699 135.97181641 329.92163086 135.78222656 C327.61425725 135.25688412 327.61425725 135.25688412 323.9296875 135.38671875 C323.91550781 136.28648437 323.90132812 137.18625 323.88671875 138.11328125 C323.57189215 146.60509057 322.45137883 154.59716469 320.5546875 162.88671875 C320.34561768 163.80533691 320.13654785 164.72395508 319.92114258 165.67041016 C318.627274 171.0996229 316.98121633 176.1975576 314.9296875 181.38671875 C314.6203125 182.35609375 314.3109375 183.32546875 313.9921875 184.32421875 C311.45079712 191.64940279 308.89679589 198.58071526 302.3671875 203.19921875 C297.51373575 204.87586572 293.01175866 205.10250342 287.9296875 204.38671875 C284.36227192 202.03744508 283.27335948 199.35649778 281.9296875 195.38671875 C281.67089844 192.47094727 281.67089844 192.47094727 281.6640625 189.265625 C281.66003418 188.08983887 281.65600586 186.91405273 281.65185547 185.70263672 C281.66104004 184.46400879 281.67022461 183.22538086 281.6796875 181.94921875 C281.68766357 180.04487061 281.68766357 180.04487061 281.69580078 178.10205078 C281.76973553 170.82368923 282.07619491 163.85688783 283.3515625 156.6875 C284.09247959 152.45726391 284.57998711 148.21635315 285.0546875 143.94921875 C285.14218262 143.20269043 285.22967773 142.45616211 285.31982422 141.68701172 C285.81878015 137.22251068 286.01254668 132.87886987 285.9296875 128.38671875 C276.46655094 126.13046165 267.65046168 125.22589712 257.9296875 125.38671875 C257.878125 126.37800781 257.8265625 127.36929688 257.7734375 128.390625 C256.97428007 139.93135954 255.00571857 151.22565491 252.75341797 162.55734253 C252.41727553 164.25332479 252.08717986 165.95051874 251.76367188 167.6489563 C250.06697009 176.49456355 248.05493127 184.92471103 244.47265625 193.21484375 C244.19762772 193.85355408 243.92259918 194.4922644 243.63923645 195.15032959 C241.24556888 200.34707531 238.37510973 205.19117899 233.1171875 207.76171875 C229.05310828 208.55859703 226.08292614 208.84818971 221.9296875 208.38671875 C212.82466005 201.30503074 211.14671107 189.97063917 209.37646484 179.19921875 C208.50234474 171.74006053 208.51085296 164.26390813 208.5546875 156.76171875 C208.55900787 155.98624695 208.56332825 155.21077515 208.56777954 154.4118042 C208.67998522 141.06621941 208.67998522 141.06621941 209.9296875 135.38671875 C209.99502185 133.45020856 210.01553053 131.51169014 209.9921875 129.57421875 C209.98316406 128.59839844 209.97414063 127.62257813 209.96484375 126.6171875 C209.95324219 125.88113281 209.94164062 125.14507812 209.9296875 124.38671875 C195.23780204 123.8172135 195.23780204 123.8172135 180.9296875 126.38671875 C180.88481201 127.26070313 180.83993652 128.1346875 180.79370117 129.03515625 C177.9841048 182.44197941 177.9841048 182.44197941 170.9296875 195.38671875 C170.5996875 196.12148438 170.2696875 196.85625 169.9296875 197.61328125 C168.48472567 200.17583074 166.64829117 200.45841506 163.9296875 201.38671875 C162.9396875 202.04671875 161.9496875 202.70671875 160.9296875 203.38671875 C157.86374735 203.93215754 154.99750228 203.92048617 151.9296875 203.38671875 C146.39958926 199.15089882 144.89264715 195.06030003 143.9296875 188.38671875 C143.82222802 186.47852281 143.75518734 184.56770905 143.72436523 182.65673828 C143.70442001 181.55605011 143.68447479 180.45536194 143.66392517 179.32131958 C143.63885643 177.56318436 143.63885643 177.56318436 143.61328125 175.76953125 C143.59250015 174.55723846 143.57171906 173.34494568 143.55030823 172.09591675 C143.48507768 168.23457345 143.42605099 164.37316384 143.3671875 160.51171875 C143.32397709 157.88931614 143.280362 155.26692016 143.23632812 152.64453125 C143.12942346 146.22532993 143.0276084 139.80606306 142.9296875 133.38671875 C137.66045754 133.29839882 133.21905043 133.9392683 128.1796875 135.38671875 C114.86658163 138.88375941 114.86658163 138.88375941 108.9296875 137.38671875 C106.21690354 135.48363283 104.66360317 133.17967274 102.9296875 130.38671875 C102.03523023 129.03164277 101.13932219 127.67752362 100.2421875 126.32421875 C99.49388672 125.18146484 99.49388672 125.18146484 98.73046875 124.015625 C91.26262486 113.11354487 82.47684195 103.49998288 73.39208984 93.94628906 C71.69927145 92.14099292 70.08604988 90.27968641 68.4921875 88.38671875 C60.28444702 78.8906747 51.17847838 70.05566962 41.328125 62.28515625 C39.18687839 60.5902933 37.14748166 58.8364135 35.1171875 57.01171875 C29.86561871 52.37104674 24.3079617 48.11243645 18.77294922 43.81835938 C16.93738252 42.39269538 15.10712708 40.96041941 13.27734375 39.52734375 C12.12006057 38.62595673 10.96251876 37.72490165 9.8046875 36.82421875 C8.77085937 36.01855469 7.73703125 35.21289062 6.671875 34.3828125 C4.45305528 32.76768874 2.42732974 31.49213457 -0.0703125 30.38671875 Z " fill="#040504" transform="translate(278.0703125,175.61328125)"/>
<path d="M0 0 C2.68849977 -0.07560514 5.37620071 -0.12639082 8.06542969 -0.16748047 C8.87850586 -0.1889917 9.69158203 -0.21050293 10.52929688 -0.23266602 C17.20706992 -0.26957903 21.68861258 1.21946424 27.12792969 5.27001953 C29.26826784 8.18866247 30.16616266 10.19088206 29.93261719 13.85205078 C28.59634156 17.8679107 25.63167779 20.50579877 22.72167969 23.48486328 C20.21357745 26.05876449 17.94069568 28.71941674 15.69042969 31.52001953 C15.04074219 32.32310547 14.39105469 33.12619141 13.72167969 33.95361328 C9.62777336 39.64539632 10.72555379 47.39747314 11.19042969 54.08251953 C14.12171436 68.10243536 22.05684589 81.49409988 33.94042969 89.64501953 C39.59157936 92.77100217 44.87281228 93.11614946 51.19042969 92.08251953 C56.56313189 90.34627824 59.53982122 86.99105373 62.19042969 82.08251953 C63.78485005 77.87206873 64.52310603 73.98607052 65.00292969 69.52001953 C66.04681837 62.43128706 66.04681837 62.43128706 68.44042969 59.77001953 C71.77248641 57.72534836 73.35723682 57.26694658 77.19042969 58.08251953 C79.56542969 59.89501953 79.56542969 59.89501953 81.19042969 63.08251953 C82.73071834 74.88498135 79.99830292 85.4791428 73.19042969 95.08251953 C72.54460937 96.05705078 72.54460937 96.05705078 71.88574219 97.05126953 C67.66431498 102.74644943 61.89336625 106.00306067 55.19042969 108.08251953 C43.63194314 109.78448395 32.62649624 108.26850494 22.87792969 101.70751953 C19.34030418 99.0680762 16.15465934 96.36720645 13.19042969 93.08251953 C12.36091797 92.17179688 12.36091797 92.17179688 11.51464844 91.24267578 C6.79944212 85.98224218 2.20170113 80.80004082 -0.49707031 74.20751953 C-1.44861595 70.99155078 -1.44861595 70.99155078 -3.80957031 70.08251953 C-4.07640625 70.80052734 -4.34324219 71.51853516 -4.61816406 72.25830078 C-10.59944828 86.43688599 -22.24499691 98.93028992 -35.80957031 106.08251953 C-36.69 106.60458984 -37.57042969 107.12666016 -38.47753906 107.66455078 C-45.75455048 110.7613329 -55.31279171 110.26228274 -62.89160156 108.27392578 C-72.82988043 103.75083508 -79.58262836 95.47345347 -83.77832031 85.57861328 C-85.47764332 79.8176508 -85.8399856 74.00940434 -84.80957031 68.08251953 C-83.24777368 65.75198811 -82.39904662 65.20105553 -79.65332031 64.64892578 C-78.87988281 64.64763672 -78.10644531 64.64634766 -77.30957031 64.64501953 C-76.53613281 64.62568359 -75.76269531 64.60634766 -74.96582031 64.58642578 C-72.80957031 65.08251953 -72.80957031 65.08251953 -71.11035156 66.75439453 C-69.61184779 69.43640129 -69.07616395 71.75636898 -68.49707031 74.77001953 C-66.91409672 81.58513743 -64.13589849 87.06481974 -58.91503906 91.80126953 C-55.0855561 94.13164135 -51.13668257 93.64550237 -46.80957031 93.08251953 C-34.41238549 89.64522245 -26.77389151 76.59792919 -20.80957031 66.08251953 C-19.76512165 63.76874092 -18.76080794 61.4361532 -17.80957031 59.08251953 C-17.42414063 58.22658203 -17.03871094 57.37064453 -16.64160156 56.48876953 C-15.69134007 53.74059546 -15.50930449 51.48609798 -15.49707031 48.58251953 C-15.47193359 47.20580078 -15.47193359 47.20580078 -15.44628906 45.80126953 C-16.22403941 39.98068631 -20.00930648 36.72343303 -24.12207031 32.83251953 C-36.00627026 21.19766592 -36.00627026 21.19766592 -36.43457031 13.33251953 C-36.19646407 10.36136768 -35.72286364 8.91633174 -34.30957031 6.20751953 C-28.37019144 1.15904749 -21.53891257 0.58928816 -14.05957031 0.39501953 C-13.15577637 0.36375977 -12.25198242 0.3325 -11.32080078 0.30029297 C-7.54760244 0.18121509 -3.77342758 0.11082886 0 0 Z " fill="#050605" transform="translate(498.8095703125,534.91748046875)"/>
<path d="M0 0 C6.72018366 6.05089707 11.56308194 14.31118167 12.16113281 23.46679688 C12.6803653 57.49463779 12.6803653 57.49463779 0.12890625 71.015625 C-5.38985993 75.90537052 -9.76956248 77.55085328 -17.18359375 77.36328125 C-21.74344102 76.77511787 -24.72365425 75.20449606 -28 72 C-34.99141351 62.87938328 -37.53222097 53.52234323 -37.3125 42.1875 C-37.29904541 41.21554687 -37.28559082 40.24359375 -37.27172852 39.2421875 C-36.98839451 25.64215505 -35.05055402 12.59046131 -25.3984375 2.19921875 C-17.5225169 -5.02251301 -9.12497496 -6.37670494 0 0 Z " fill="#030303" transform="translate(395,456)"/>
<path d="M0 0 C0 0.66 0 1.32 0 2 C0.75925781 2.24105469 1.51851562 2.48210937 2.30078125 2.73046875 C5.41438308 4.19489797 6.37971647 5.42877025 8.1875 8.3125 C8.92033203 9.45138672 8.92033203 9.45138672 9.66796875 10.61328125 C15.9882973 21.93797551 15.62918284 37.34265856 12.1875 49.625 C11.48655485 51.75947533 10.76147015 53.88636043 10 56 C9.773125 56.69480469 9.54625 57.38960937 9.3125 58.10546875 C6.45994975 65.89649662 0.24626796 72.8291787 -6.77734375 77.07421875 C-11.28630207 78.95229102 -16.21951184 78.49475482 -21 78 C-27.63086715 75.17574177 -31.21642243 69.04143981 -34.04296875 62.63671875 C-38.99546089 47.68623777 -37.01390302 28.02780604 -30 14 C-29.34 14 -28.68 14 -28 14 C-27.90074219 13.42378906 -27.80148437 12.84757812 -27.69921875 12.25390625 C-26.09103749 7.06999236 -21.5006504 3.06712917 -17.1875 0 C-11.52718045 -1.77578652 -5.69539409 -1.62725545 0 0 Z " fill="#030403" transform="translate(634,457)"/>
</svg>
